:FULLY-SPECIFIED
:FORCE-ALL-JOINTS-BE-3DOF
:DEGREES
272
root 8.25531 16.2328 -25.2511 21.7979 70.063 20.2567
lfemur -24.0558 7.96721 -22.9652
ltibia 42.1488 -0 0
lfoot -8.29254 -22.3065 0.0260371
ltoes 60.5175 -0 0
rfemur -51.4678 -4.98087 12.6412
rtibia 81.532 -0 0
rfoot 8.26112 2.42917 0.0539136
rtoes 0.757487 -0 0
lowerback 6.52841 -4.59825 -2.81159
upperback 1.72731 -6.30014 -2.04666
thorax -1.78837 -3.11229 -0.0457971
lowerneck -5.23286 -11.2401 -4.61561
upperneck 0.971283 -14.8568 5.28884
head 1.99893 -7.34065 1.8762
lclavicle 0 0 0
lhumerus -45.1551 -36.2391 107.292
lradius 59.4858 -0 0
lwrist 20.4277 0 0
lhand 18.9762 15.226 0.0178695
lfingers 0 0 0
lthumb 43.5758 39.2295 0.0053106
rclavicle 0 0 0
rhumerus -54.3027 2.56239 -94.2841
rradius 45.2059 -0 0
rwrist 22.4508 0 0
rhand -18.668 1.30142 -1.2284
rfingers 0 0 0
rthumb 7.59925 -27.95 -1.01937
273
root 8.28628 16.2182 -25.2306 22.9664 71.1164 21.8168
lfemur -23.7547 7.52407 -23.0695
ltibia 42.8013 -0 0
lfoot -8.55404 -22.937 0.0178412
ltoes 59.9801 -0 0
rfemur -52.7617 -4.61231 13.6785
rtibia 79.8598 -0 0
rfoot 7.63007 1.88816 0.0369416
rtoes 0.855033 -0 0
lowerback 6.6828 -4.7325 -2.86362
upperback 1.90676 -6.47949 -2.14851
thorax -1.69175 -3.20196 -0.103696
lowerneck -5.03585 -11.3316 -4.74701
upperneck 0.898047 -14.9853 5.51822
head 1.97832 -7.40433 1.97373
lclavicle 0 0 0
lhumerus -44.9259 -36.3192 106.985
lradius 59.4096 -0 0
lwrist 20.4922 0 0
lhand 19.4653 15.4574 0.0122449
lfingers 0 0 0
lthumb 44.0336 39.303 0.00363908
rclavicle 0 0 0
rhumerus -55.2216 3.3911 -95.7742
rradius 46.9351 -0 0
rwrist 22.1438 0 0
rhand -22.2455 3.45697 -0.83963
rfingers 0 0 0
rthumb 4.15859 -26.088 -0.696977
274
root 8.30949 16.2066 -25.215 24.0086 71.9464 23.1696
lfemur -23.5148 7.17189 -23.1541
ltibia 43.3204 -0 0
lfoot -8.76203 -23.4387 0.00926501
ltoes 59.5525 -0 0
rfemur -53.7857 -4.3025 14.4974
rtibia 78.5294 -0 0
rfoot 7.12812 1.45788 0.0191833
rtoes 0.932643 -0 0
lowerback 6.80574 -4.83922 -2.90529
upperback 2.0498 -6.62195 -2.22997
thorax -1.6148 -3.27323 -0.149873
lowerneck -4.8789 -11.4041 -4.85182
upperneck 0.839367 -15.0873 5.70094
head 1.96184 -7.45496 2.05135
lclavicle 0 0 0
lhumerus -44.7429 -36.3823 106.74
lradius 59.349 -0 0
lwrist 20.5436 0 0
lhand 19.8543 15.6415 0.00635899
lfingers 0 0 0
lthumb 44.3978 39.3615 0.00188986
rclavicle 0 0 0
rhumerus -55.9686 4.03314 -96.9701
rradius 48.3109 -0 0
rwrist 21.8995 0 0
rhand -25.0796 5.15193 -0.434894
rfingers 0 0 0
rthumb 1.42987 -24.6226 -0.361124
275
root 8.32405 16.1989 -25.205 24.7588 72.4901 24.1246
lfemur -23.3561 6.93946 -23.2108
ltibia 43.6633 -0 0
lfoot -8.89937 -23.77 0.00260146
ltoes 59.2701 -0 0
rfemur -54.4594 -4.08989 15.035
rtibia 77.6506 -0 0
rfoot 6.79664 1.17375 0.0053862
rtoes 0.983908 -0 0
lowerback 6.887 -4.90966 -2.93294
upperback 2.14442 -6.71595 -2.28399
thorax -1.56394 -3.32028 -0.18043
lowerneck -4.77514 -11.4519 -4.92117
upperneck 0.800406 -15.1546 5.82174
head 1.95092 -7.4884 2.10264
lclavicle 0 0 0
lhumerus -44.6218 -36.4236 106.578
lradius 59.309 -0 0
lwrist 20.5775 0 0
lhand 20.1113 15.7631 0.00178553
lfingers 0 0 0
lthumb 44.6383 39.4001 0.000530656
rclavicle 0 0 0
rhumerus -56.4697 4.44863 -97.7652
rradius 49.2196 -0 0
rwrist 21.7382 0 0
rhand -26.9445 6.25963 -0.121866
rfingers 0 0 0
rthumb -0.367453 -23.6641 -0.10122
276
root 8.57412 16.0601 -25.0279 25.0427 72.6855 24.4824
lfemur -23.2988 6.85556 -23.2314
ltibia 43.7871 0 0
lfoot -8.94895 -23.8897 0
ltoes 59.1681 0 0
rfemur -54.7022 -4.01157 15.2285
rtibia 77.3332 0 0
rfoot 6.67696 1.07117 0
rtoes 1.00242 0 0
lowerback 6.91636 -4.93509 -2.94295
upperback 2.17862 -6.74987 -2.30354
thorax -1.54557 -3.33726 -0.191475
lowerneck -4.73765 -11.4691 -4.94624
upperneck 0.786297 -15.1789 5.86538
head 1.94697 -7.50047 2.12116
lclavicle 2.16924e-14 5.24295e-15 0
lhumerus -44.578 -36.4384 106.52
lradius 59.2945 0 0
lwrist 20.5897 0 0
lhand 20.2041 15.807 0
lfingers 7.12502 0 0
lthumb 44.7252 39.414 0
rclavicle 2.16924e-14 5.24295e-15 0
rhumerus -56.6521 4.59695 -98.0533
rradius 49.5478 0 0
rwrist 21.6799 0 0
rhand -27.6164 6.65705 0
rfingers 7.12502 0 0
rthumb -1.01538 -23.32 0
277
root 8.64427 16.02 -24.9787 25.6776 73.1216 25.6066
lfemur -22.8192 6.84406 -23.169
ltibia 44.2927 -0 0
lfoot -9.23816 -24.3595 0.0183324
ltoes 58.7697 -0 0
rfemur -54.0078 -3.80707 15.4635
rtibia 75.9642 -0 0
rfoot 6.90704 0.0203359 -0.0327903
rtoes 3.28935 -0 0
lowerback 6.94817 -4.98771 -3.13062
upperback 2.32976 -6.82049 -2.39758
thorax -1.39226 -3.3739 -0.18955
lowerneck -4.59768 -11.5353 -5.02607
upperneck 0.914193 -15.2766 5.94774
head 1.98722 -7.55033 2.15892
lclavicle 0 0 0
lhumerus -44.4943 -36.7615 106.4
lradius 59.36 -0 0
lwrist 20.3247 0 0
lhand 19.9874 15.6793 0.00372646
lfingers 0 0 0
lthumb 44.5226 39.3582 0.00152148
rclavicle 0 0 0
rhumerus -57.2715 5.13517 -98.2666
rradius 50.7415 -0 0
rwrist 21.3422 0 0
rhand -27.7018 5.95567 0.00808738
rfingers 0 0 0
rthumb -1.09783 -24.0207 0.00780382
278
root 8.71944 15.9752 -24.9269 26.6685 73.7394 27.2972
lfemur -22.1325 6.82669 -23.0798
ltibia 45.0167 -0 0
lfoot -9.65259 -25.0325 0.0404545
ltoes 58.1993 -0 0
rfemur -53.0121 -3.51919 15.8042
rtibia 74.0037 -0 0
rfoot 7.2375 -1.48477 -0.0723881
rtoes 6.56445 -0 0
lowerback 6.99403 -5.06288 -3.39947
upperback 2.54645 -6.92121 -2.53262
thorax -1.1727 -3.42637 -0.186964
lowerneck -4.39702 -11.6297 -5.14072
upperneck 1.0972 -15.4168 6.06535
head 2.0448 -7.62178 2.21295
lclavicle 0 0 0
lhumerus -44.3722 -37.224 106.225
lradius 59.4539 -0 0
lwrist 19.9453 0 0
lhand 19.6771 15.4965 0.0082223
lfingers 0 0 0
lthumb 44.2325 39.2784 0.00335707
rclavicle 0 0 0
rhumerus -58.1629 5.90188 -98.5826
rradius 52.451 -0 0
rwrist 20.8587 0 0
rhand -27.8242 4.9512 0.0178482
rfingers 0 0 0
rthumb -1.21605 -25.0243 0.0172224
279
root 8.79716 15.9274 -24.874 28.0253 74.4834 29.5091
lfemur -21.2918 6.80399 -22.9708
ltibia 45.9031 -0 0
lfoot -10.1602 -25.8565 0.0609055
ltoes 57.5009 -0 0
rfemur -51.7913 -3.1749 16.2278
rtibia 71.6037 -0 0
rfoot 7.64327 -3.32751 -0.109023
rtoes 10.5736 -0 0
lowerback 7.05066 -5.15461 -3.7287
upperback 2.81209 -7.0438 -2.69847
thorax -0.903912 -3.49062 -0.184073
lowerneck -4.15102 -11.7448 -5.28157
upperneck 1.32099 -15.5889 6.2088
head 2.11521 -7.70931 2.27899
lclavicle 0 0 0
lhumerus -44.2194 -37.7897 106.008
lradius 59.5688 -0 0
lwrist 19.4808 0 0
lhand 19.2973 15.2726 0.0123776
lfingers 0 0 0
lthumb 43.8774 39.1806 0.00505359
rclavicle 0 0 0
rhumerus -59.2618 6.83361 -98.9863
rradius 54.5437 -0 0
rwrist 20.2667 0 0
rhand -27.9742 3.72157 0.0268733
rfingers 0 0 0
rthumb -1.36097 -26.2528 0.0259311
280
root 8.87497 15.8785 -24.8214 29.756 75.2981 32.1956
lfemur -20.3507 6.77668 -22.8493
ltibia 46.8955 -0 0
lfoot -10.7289 -26.7793 0.075138
ltoes 56.719 -0 0
rfemur -50.4219 -2.80019 16.7107
rtibia 68.9165 -0 0
rfoot 8.09874 -5.3911 -0.134535
rtoes 15.0628 -0 0
lowerback 7.11471 -5.25693 -4.0975
upperback 3.11005 -7.18016 -2.88492
thorax -0.602928 -3.56258 -0.181193
lowerneck -3.87511 -11.8729 -5.43996
upperneck 1.57127 -15.7822 6.36874
head 2.19395 -7.80742 2.35283
lclavicle 0 0 0
lhumerus -44.0436 -38.4226 105.762
lradius 59.6974 -0 0
lwrist 18.9607 0 0
lhand 18.8719 15.0219 0.0152689
lfingers 0 0 0
lthumb 43.4797 39.0711 0.00623403
rclavicle 0 0 0
rhumerus -60.5028 7.86749 -99.4607
rradius 56.8869 -0 0
rwrist 19.6039 0 0
rhand -28.1424 2.3447 0.0331551
rfingers 0 0 0
rthumb -1.52341 -27.6284 0.0319926
281
root 8.9504 15.8302 -24.7709 31.8486 76.1288 35.2902
lfemur -19.3623 6.74587 -22.7222
ltibia 47.9379 -0 0
lfoot -11.3263 -27.7486 0.0802224
ltoes 55.8977 -0 0
rfemur -48.9806 -2.41918 17.2271
rtibia 66.094 -0 0
rfoot 8.5778 -7.55868 -0.143652
rtoes 19.7778 -0 0
lowerback 7.1827 -5.36396 -4.48505
upperback 3.42357 -7.32235 -3.08157
thorax -0.286778 -3.63817 -0.178576
lowerneck -3.58478 -12.0066 -5.60707
upperneck 1.83379 -15.986 6.53594
head 2.27654 -7.91058 2.43026
lclavicle 0 0 0
lhumerus -43.8535 -39.0866 105.497
lradius 59.8325 -0 0
lwrist 18.4144 0 0
lhand 18.4252 14.7586 0.0163017
lfingers 0 0 0
lthumb 43.0621 38.9561 0.00665569
rclavicle 0 0 0
rhumerus -61.8191 8.94209 -99.9845
rradius 59.348 -0 0
rwrist 18.9078 0 0
rhand -28.3192 0.898545 0.0353994
rfingers 0 0 0
rthumb -1.69414 -29.0732 0.0341581
282
root 9.02099 15.7845 -24.7239 34.2487 76.9241 38.6845
lfemur -18.3799 6.7131 -22.5963
ltibia 48.9741 -0 0
lfoot -11.9202 -28.7122 0.0752587
ltoes 55.0813 -0 0
rfemur -47.545 -2.05343 17.7497
rtibia 63.2884 -0 0
rfoot 9.05398 -9.71327 -0.134751
rtoes 24.4646 -0 0
lowerback 7.25101 -5.46989 -4.87048
upperback 3.7358 -7.46262 -3.27788
thorax 0.0275018 -3.71332 -0.176389
lowerneck -3.29566 -12.1388 -5.77395
upperneck 2.09439 -16.1893 6.70135
head 2.35851 -8.01323 2.5071
lclavicle 0 0 0
lhumerus -43.6588 -39.746 105.229
lradius 59.9668 -0 0
lwrist 17.8714 0 0
lhand 17.9811 14.4968 0.0152935
lfingers 0 0 0
lthumb 42.6469 38.8418 0.00624404
rclavicle 0 0 0
rhumerus -63.1414 9.99811 -100.532
rradius 61.7943 -0 0
rwrist 18.2158 0 0
rhand -28.4949 -0.538951 0.0332084
rfingers 0 0 0
rthumb -1.86384 -30.5093 0.032044
283
root 9.08428 15.743 -24.682 36.8361 77.6386 42.2048
lfemur -17.4569 6.68035 -22.4786
ltibia 49.9478 -0 0
lfoot -12.4782 -29.6176 0.0614925
ltoes 54.3141 -0 0
rfemur -46.1932 -1.72176 18.2489
rtibia 60.6519 -0 0
rfoot 9.50088 -11.7379 -0.110075
rtoes 28.869 -0 0
lowerback 7.31587 -5.56901 -5.23287
upperback 4.02975 -7.59347 -3.46312
thorax 0.322871 -3.78396 -0.174711
lowerneck -3.02346 -12.2622 -5.93147
upperneck 2.33898 -16.381 6.85607
head 2.43543 -8.10979 2.57919
lclavicle 0 0 0
lhumerus -43.4704 -40.365 104.972
lradius 60.093 -0 0
lwrist 17.3611 0 0
lhand 17.5638 14.2509 0.0124969
lfingers 0 0 0
lthumb 42.2567 38.7344 0.00510229
rclavicle 0 0 0
rhumerus -64.3974 10.9789 -101.07
rradius 64.0933 -0 0
rwrist 17.5655 0 0
rhand -28.6599 -1.88984 0.0271324
rfingers 0 0 0
rthumb -2.02323 -31.859 0.0261811
